<svg width="33" height="32" viewBox="0 0 33 32" fill="none" xmlns="http://www.w3.org/2000/svg">
<g id="Group">
<path id="Vector" d="M10.1696 0.278198L12.9522 2.92167C13.9956 3.89558 14.5522 5.21733 14.5522 6.6782C14.5522 8.0695 15.1087 9.39124 16.0826 10.3652L16.4304 10.713L19.6304 0.347757" fill="#0DE2BC"/>
<path id="Vector_2" d="M0.708679 9.53054L4.53477 9.39141C5.92607 9.32185 7.31737 9.87837 8.29128 10.8523C9.2652 11.8262 10.5869 12.3131 11.9782 12.3131H12.4652L7.31738 2.78271" fill="#0DE2BC"/>
<path id="Vector_3" d="M0.708698 22.7477L3.28261 19.9651C4.25652 18.9217 5.57826 18.2956 6.96957 18.2956C8.36087 18.2956 9.61304 17.6695 10.587 16.6956L10.9348 16.3478L0.5 13.3564" fill="#0DE2BC"/>
<path id="Vector_4" d="M10.1695 31.9306L9.96086 28.1045C9.89129 26.7132 10.3782 25.3219 11.3522 24.2784C12.2565 23.3045 12.813 21.9132 12.7435 20.5914V20.1045L3.28259 25.461" fill="#0DE2BC"/>
<path id="Vector_5" d="M23.387 31.6524L20.5348 29.148C19.4913 28.2437 18.8652 26.9219 18.7957 25.4611C18.7261 24.0698 18.1 22.8176 17.1261 21.8437L16.7783 21.4958L13.9957 32.0002" fill="#0DE2BC"/>
<path id="Vector_6" d="M32.4304 21.9826L28.6043 22.2609C27.213 22.4 25.8217 21.9131 24.7783 20.9391C23.7348 20.0348 22.413 19.5478 21.0217 19.6174H20.5348L26.1 28.9391" fill="#0DE2BC"/>
<path id="Vector_7" d="M31.8043 8.83459L29.3696 11.7563C28.4652 12.7998 27.1435 13.4955 25.7522 13.565C24.3609 13.6346 23.1087 14.2607 22.2043 15.3042L21.9261 15.652L32.5 18.1563" fill="#0DE2BC"/>
<path id="Vector_8" d="M21.9956 0L22.3435 3.82609C22.4826 5.21739 22.0652 6.6087 21.0913 7.72174C20.1869 8.76522 19.7696 10.087 19.8391 11.4783L19.9087 11.9652L29.0913 6.19131" fill="#0DE2BC"/>
</g>
</svg>
